<svg
  xmlns="http://www.w3.org/2000/svg"
  viewBox="0 0 1024 1024"
  fill="#fff"
  height="45px"
  width="45px"
>
  <path d="M959.776 925.328 64.224 925.328C37.584 925.328 16 903.952 16 877.568L16 260.32c0-26.384 28.48-51.44 55.104-51.44l183.696 0c0 0 47.584-110.224 73.488-110.224l365.104 0c28.704 0 75.776 110.224 75.776 110.224l190.592 3.68c26.624 0 48.224 21.376 48.224 47.76l0 617.248C1008 903.952 986.416 925.328 959.776 925.328zM952.896 300.736c0-23.152-13.488-36.736-36.736-36.736L732.448 264c-29.84-57.552-34.208-110.224-73.488-110.224l-293.92 0c-46.528 0-46.544 47.76-73.488 110.224L107.856 264c-22.976 0-36.736 11.632-36.736 36.736l0 532.736c0 20.448 15.6 36.736 36.736 36.736l808.304 0c21.312 0 36.736-17.728 36.736-36.736L952.896 300.736zM512 760c-121.744 0-220.448-98.704-220.448-220.448S390.256 319.104 512 319.104c121.744 0 220.448 98.704 220.448 220.448S633.744 760 512 760zM512 379.232c-88.544 0-160.32 71.776-160.32 160.32s71.776 160.32 160.32 160.32c88.544 0 160.32-71.776 160.32-160.32S600.544 379.232 512 379.232z"/>
</svg>
